<svg xmlns="http://www.w3.org/2000/svg" xmlns:xlink="http://www.w3.org/1999/xlink" id="ICONS-64x" x="0" y="0" version="1.1" viewBox="0 0 64 64" xml:space="preserve" style="enable-background:new 0 0 64 64"><style type="text/css">.st0{fill:#868686}.st1{fill:#0c50c7}.st2{fill:#fff}.st3{fill:#e5e5e5}.st4{fill:none;stroke:#868686;stroke-width:2;stroke-miterlimit:10}</style><title>i_quick-start</title><g><rect width="4" height="10" x="30" y="1" class="st0"/><rect width="7" height="3" x="48.5" y="12.5" class="st0" transform="matrix(0.707 -0.7072 0.7072 0.707 5.2916 40.8664)"/><rect width="6" height="8" x="52.5" y="6.5" class="st1" transform="matrix(0.7071 -0.7071 0.7071 0.7071 8.8802 42.3405)"/><path d="M32,61.5C16.8,61.5,4.5,49.2,4.5,34C4.5,18.8,16.8,6.5,32,6.5c15.2,0,27.5,12.3,27.5,27.5 c0,9-4.4,17.5-11.8,22.6C43.1,59.8,37.6,61.5,32,61.5z" class="st2"/><path d="M32,61c-1.6,0-3.2-0.1-4.8-0.4c-5.3-0.9-10.2-3.4-14-7.1l-0.4-0.3c-10.5-10.5-10.5-27.6,0-38.2 c3.9-3.9,8.9-6.5,14.4-7.5C28.8,7.2,30.4,7,32,7c7.1,0,14,2.8,19,7.9l0.3,0.3C61.7,25.9,61.5,43,50.7,53.4C45.7,58.3,39,61,32,61z" class="st2"/><path d="M51.5,53.5C45.1,59.8,36,62.6,27.1,61c-5.4-0.9-10.3-3.5-14.2-7.3l38.9-38.8C62.2,25.7,62,42.8,51.5,53.5 L51.5,53.5z" class="st3"/><path d="M32,8c14.4,0,26,11.7,26,26c0,8.5-4.2,16.4-11.1,21.3c-11.8,8.2-28,5.3-36.2-6.5C7.6,44.4,6,39.3,6,34 c0-5.3,1.6-10.5,4.7-14.8C15.5,12.2,23.5,8,32,8 M32,6C16.5,6,4,18.5,4,34s12.5,28,28,28c15.5,0,28-12.6,28-28 c0-7.5-3-14.6-8.3-19.8C46.5,8.9,39.4,6,32,6z" class="st0"/><circle cx="32" cy="34" r="11" class="st1"/><circle cx="32" cy="34" r="4" class="st2"/><path d="M38,3H26c-0.6,0-1-0.4-1-1s0.4-1,1-1h12c0.6,0,1,0.4,1,1S38.6,3,38,3z" class="st0"/><polygon points="32.9 35.1 31 33.1 48.3 17.3 49.1 18.1" class="st0"/><line x1="32" x2="32" y1="11" y2="17" class="st4"/><line x1="32" x2="32" y1="52" y2="58" class="st4"/><line x1="9" x2="15" y1="34" y2="34" class="st4"/><line x1="49" x2="55" y1="34" y2="34" class="st4"/></g></svg>