<svg xmlns="http://www.w3.org/2000/svg" xmlns:xlink="http://www.w3.org/1999/xlink" id="Layer_1" x="0" y="0" version="1.1" viewBox="0 0 64 64" xml:space="preserve" style="enable-background:new 0 0 64 64"><style type="text/css">.st0{fill:#fff}.st1{fill:#e5e5e5}.st2{fill:#0c50c7}.st3{fill:none;stroke:#868686;stroke-width:2;stroke-miterlimit:10}</style><title>i_account-management</title><g><path d="M12,1h39c1.1,0,2,0.9,2,2v58c0,1.1-0.9,2-2,2H12c-1.1,0-2-0.9-2-2V3C10,1.9,10.9,1,12,1z" class="st0"/><path d="M53,52v9c0,1.1-0.9,2-2,2H12c-1.1,0-2-0.9-2-2v-9H53z" class="st1"/><path d="M53,3v5H10V3c0-1.1,0.9-2,2-2h39C52.1,1,53,1.9,53,3z" class="st2"/><path d="M12,1h39c1.1,0,2,0.9,2,2v58c0,1.1-0.9,2-2,2H12c-1.1,0-2-0.9-2-2V3C10,1.9,10.9,1,12,1z" class="st3"/><line x1="10" x2="53" y1="8" y2="8" class="st3"/><line x1="10" x2="53" y1="52" y2="52" class="st3"/><circle cx="31.5" cy="23" r="8" class="st3"/><path d="M19,43c0.1-6.8,5.7-12.1,12.5-12c6.8-0.1,12.4,5.2,12.5,12" class="st3"/></g></svg>