<svg xmlns="http://www.w3.org/2000/svg" xmlns:xlink="http://www.w3.org/1999/xlink" id="ICONS-64x" x="0" y="0" version="1.1" viewBox="0 0 64 64" xml:space="preserve" style="enable-background:new 0 0 64 64"><style type="text/css">.st0{fill:#0c50c7}.st1,.st2{fill:#fff}.st2{stroke:#868686;stroke-width:2;stroke-miterlimit:10}.st3{fill:#e5e5e5}</style><title>i_tools</title><path d="M54,36h-5V15l3-4L49,1h-4l-3,10l3,4v21h-5v6h3c0,2-2,4-3,4.1v12.4c0,3.3,2,5.5,4,5.5h6c2,0,4-2.7,4-6V46	c-1,0-3-2-3-4h3V36z" class="st0"/><rect width="2" height="17" x="44" y="45" class="st1"/><rect width="2" height="17" x="48" y="45" class="st1"/><path d="M34,13c0-4.7-2.7-9-7-10.9V10l-5,4l-5-4V2.1C11,4.9,8.3,12,11.1,18c1.2,2.6,3.3,4.7,5.9,5.9V59c0,2.2,1.8,4,4,4	h1c2.2,0,4-1.8,4-4V24.3C30.8,22.6,34,18.1,34,13z" class="st2"/><rect width="7" height="5" x="18" y="53" class="st3"/></svg>