<svg xmlns="http://www.w3.org/2000/svg" xmlns:xlink="http://www.w3.org/1999/xlink" id="ICONS-64x" x="0" y="0" version="1.1" viewBox="0 0 64 64" xml:space="preserve" style="enable-background:new 0 0 64 64"><style type="text/css">.st0{fill:none;stroke:#868686;stroke-width:2;stroke-miterlimit:10}.st1{fill:#fff}.st2{fill:#0f65ef}.st3{fill:#0c50c7}</style><title>i_multi-connect</title><g><line x1="13.9" x2="20" y1="32.4" y2="30.2" class="st0"/><line x1="22.6" x2="42.8" y1="7.5" y2="9.1" class="st0"/><line x1="32" x2="46.2" y1="53.3" y2="46.1" class="st0"/><line x1="21.3" x2="10.7" y1="50.7" y2="39" class="st0"/><line x1="9" x2="16" y1="27.9" y2="10.1" class="st0"/><line x1="27.5" x2="29.5" y1="51.8" y2="36.3" class="st0"/><line x1="36.8" x2="47.9" y1="24" y2="12.9" class="st0"/><path d="M53.6,33.2c4.9,0,8.9,3.9,8.9,8.7s-4,8.7-8.9,8.7s-8.9-3.9-8.9-8.7S48.7,33.2,53.6,33.2z" class="st1"/><path d="M53.6,33.2c4.9,0,8.9,3.9,8.9,8.7s-4,8.7-8.9,8.7s-8.9-3.9-8.9-8.7S48.7,33.2,53.6,33.2z" class="st0"/><path d="M8.1,27.4c3.7,0,6.6,2.9,6.6,6.5c0,3.6-3,6.5-6.6,6.5s-6.6-2.9-6.6-6.5C1.5,30.3,4.5,27.4,8.1,27.4z" class="st1"/><path d="M8.1,27.4c3.7,0,6.6,2.9,6.6,6.5c0,3.6-3,6.5-6.6,6.5s-6.6-2.9-6.6-6.5C1.5,30.3,4.5,27.4,8.1,27.4z" class="st0"/><path d="M30.5,17.4c6.5,0,11.7,5.1,11.7,11.5c0,6.3-5.2,11.5-11.7,11.5s-11.7-5.1-11.7-11.5 C18.8,22.5,24,17.4,30.5,17.4z" class="st2"/><path d="M26.6,47.5c4.3,0,7.8,3.4,7.8,7.7c0,4.2-3.5,7.7-7.8,7.7c-4.3,0-7.8-3.4-7.8-7.7 C18.8,50.9,22.3,47.5,26.6,47.5z" class="st3"/><path d="M17.6,1.2c3.2,0,5.8,2.6,5.8,5.7s-2.6,5.7-5.8,5.7c-3.2,0-5.8-2.6-5.8-5.7S14.4,1.2,17.6,1.2z" class="st2"/><path d="M47.9,5.5c3.7,0,6.6,2.9,6.6,6.5s-3,6.5-6.6,6.5c-3.7,0-6.6-2.9-6.6-6.5S44.3,5.5,47.9,5.5z" class="st1"/><path d="M47.9,5.5c3.7,0,6.6,2.9,6.6,6.5s-3,6.5-6.6,6.5c-3.7,0-6.6-2.9-6.6-6.5S44.3,5.5,47.9,5.5z" class="st0"/><line x1="51.3" x2="48.7" y1="34.2" y2="18.8" class="st0"/></g></svg>