<svg xmlns="http://www.w3.org/2000/svg" xmlns:xlink="http://www.w3.org/1999/xlink" id="ICONS-64x" x="0" y="0" version="1.1" viewBox="0 0 64 64" xml:space="preserve" style="enable-background:new 0 0 64 64"><style type="text/css">.st0{fill:#e50a25}.st1{fill:#ffe000}.st2{fill:#838384}.st3{fill:#fff}.st4{fill:#e5e5e5}.st5{fill:#0c50c7}.st6,.st7{fill:none;stroke:#838384;stroke-width:2;stroke-miterlimit:10}.st7{fill:#fff}</style><title>i_get-started</title><g><g><path d="M6.9,60.3c-0.8,0.3-1.6,0.5-2.4,0.7c5.1-21,15-17.2,15-17.2l1.6,1.5l0.1,0.2C21.6,46.9,22.9,55.2,6.9,60.3z" class="st0"/><path d="M6.9,60.3c5-17.3,13.5-15,14.3-14.8C21.6,46.9,22.9,55.2,6.9,60.3z" class="st1"/><polygon points="22 49.5 14.9 42.4 20.6 41 23.3 43.7" class="st2"/></g><polygon points="23.4 33.8 4.3 33.1 1.5 30.3 17.8 22.5 24.6 25" class="st2"/><polygon points="31.5 39.6 32.2 58.7 35 61.5 42.8 45.2 40.3 38.4" class="st2"/><g><path d="M27.7,48h-0.2l-0.2-0.2L17.2,37.3v-0.3c1.8-7.7,5.8-14.7,11.5-20.3C37.9,7.7,59.2,3.9,60.1,3.7l0.7-0.1 l-0.1,0.7c0,0-0.4,2.2-1.1,5.5c-2.1,8.7-5.8,20.4-11.7,26.4C38.6,45.4,28.5,48,27.7,48z" class="st3"/><path d="M59,11c-1.7,7.1-5.4,19.4-11.6,25.7C38.2,46,28.1,47.9,27.6,48L22,42.4c0,0,1.8-10.3,11.3-19.8 C39.6,16.4,51.9,12.7,59,11z" class="st4"/><path d="M61,3.3c-6.3,1.2-12.4,3-18.3,5.4l13.4,13.4C58.2,16,59.9,9.7,61,3.3z" class="st5"/><path d="M27.7,48h-0.2l-0.2-0.2L17.2,37.3v-0.3c1.8-7.7,5.8-14.7,11.5-20.3C37.9,7.7,59.2,3.9,60.1,3.7l0.7-0.1 l-0.1,0.7c0,0-0.4,2.2-1.1,5.5c-2.1,8.7-5.8,20.4-11.7,26.4C38.6,45.4,28.5,48,27.7,48z" class="st6"/></g></g><circle cx="37.5" cy="26.5" r="5" class="st7"/></svg>